{
  "accessors": [
    {
      "bufferView": 2,
      "componentType": 5126,
      "count": 1335,
      "max": [
        0.29624900221824646,
        0.0462069995701313,
        0.9173129796981812
      ],
      "min": [
        -0.30149099230766296,
        -0.08281999826431274,
        0.4531019926071167
      ],
      "type": "VEC3"
    },
    {
      "bufferView": 2,
      "byteOffset": 16020,
      "componentType": 5126,
      "count": 1335,
      "max": [
        0.9980596303939819,
        0.9988026022911072,
        0.9998138546943665
      ],
      "min": [
        -0.9995433688163757,
        -0.9995853304862976,
        -0.9990261197090149
      ],
      "type": "VEC3"
    },
    {
      "bufferView": 1,
      "componentType": 5126,
      "count": 1335,
      "max": [
        0.9935910105705261,
        0.994575023651123
      ],
      "min": [
        0.008057000115513802,
        0.10756099969148636
      ],
      "type": "VEC2"
    },
    {
      "bufferView": 0,
      "componentType": 5125,
      "count": 6798,
      "type": "SCALAR"
    },
    {
      "bufferView": 2,
      "byteOffset": 32040,
      "componentType": 5126,
      "count": 632,
      "max": [
        0.11899299919605255,
        0.06447699666023254,
        0.8693389892578125
      ],
      "min": [
        -0.11278899759054184,
        -0.096281997859478,
        -0.0008859999943524599
      ],
      "type": "VEC3"
    },
    {
      "bufferView": 2,
      "byteOffset": 39624,
      "componentType": 5126,
      "count": 632,
      "max": [
        0.9980338215827942,
        0.990463137626648,
        0.9992823600769043
      ],
      "min": [
        -0.9991748332977295,
        -0.9959591627120972,
        -0.9985242486000061
      ],
      "type": "VEC3"
    },
    {
      "bufferView": 1,
      "byteOffset": 10680,
      "componentType": 5126,
      "count": 632,
      "max": [
        0.9863889813423157,
        0.9887080192565918
      ],
      "min": [
        0.009995000436902046,
        0.004608000162988901
      ],
      "type": "VEC2"
    },
    {
      "bufferView": 0,
      "byteOffset": 27192,
      "componentType": 5125,
      "count": 2430,
      "type": "SCALAR"
    },
    {
      "bufferView": 2,
      "byteOffset": 47208,
      "componentType": 5126,
      "count": 2191,
      "max": [
        0.06641600281000137,
        0.0416329987347126,
        0.9458079934120178
      ],
      "min": [
        -0.051702000200748444,
        -0.09453599900007248,
        0.8175320029258728
      ],
      "type": "VEC3"
    },
    {
      "bufferView": 2,
      "byteOffset": 73500,
      "componentType": 5126,
      "count": 2191,
      "max": [
        0.9991088509559631,
        0.9996153712272644,
        0.9991898536682129
      ],
      "min": [
        -0.9998243451118469,
        -0.999589741230011,
        -0.986278235912323
      ],
      "type": "VEC3"
    },
    {
      "bufferView": 1,
      "byteOffset": 15736,
      "componentType": 5126,
      "count": 2191,
      "max": [
        0.9711909890174866,
        0.9969019889831543
      ],
      "min": [
        0.0013889999827370048,
        0.0015109999803826213
      ],
      "type": "VEC2"
    },
    {
      "bufferView": 0,
      "byteOffset": 36912,
      "componentType": 5125,
      "count": 7125,
      "type": "SCALAR"
    },
    {
      "bufferView": 2,
      "byteOffset": 99792,
      "componentType": 5126,
      "count": 2123,
      "max": [
        0.2657969892024994,
        0.07415200024843216,
        0.8331570029258728
      ],
      "min": [
        -0.2704800069332123,
        -0.08743999898433685,
        0.5292239785194397
      ],
      "type": "VEC3"
    },
    {
      "bufferView": 2,
      "byteOffset": 125268,
      "componentType": 5126,
      "count": 2123,
      "max": [
        0.9993076324462891,
        0.999300479888916,
        0.9999498128890991
      ],
      "min": [
        -0.9992647171020508,
        -0.9993981122970581,
        -0.9980612993240356
      ],
      "type": "VEC3"
    },
    {
      "bufferView": 1,
      "byteOffset": 33264,
      "componentType": 5126,
      "count": 2123,
      "max": [
        0.9929050207138062,
        0.9889829754829407
      ],
      "min": [
        0.00871300045400858,
        0.0052189999260008335
      ],
      "type": "VEC2"
    },
    {
      "bufferView": 0,
      "byteOffset": 65412,
      "componentType": 5125,
      "count": 7929,
      "type": "SCALAR"
    },
    {
      "bufferView": 2,
      "byteOffset": 150744,
      "componentType": 5126,
      "count": 1457,
      "max": [
        0.11017999798059464,
        0.08303000032901764,
        0.5755019783973694
      ],
      "min": [
        -0.1292330026626587,
        -0.09306199848651886,
        0.0004939999780617654
      ],
      "type": "VEC3"
    },
    {
      "bufferView": 2,
      "byteOffset": 168228,
      "componentType": 5126,
      "count": 1457,
      "max": [
        0.999927282333374,
        0.9987668991088867,
        0.9997393488883972
      ],
      "min": [
        -0.9996820092201233,
        -0.9998332858085632,
        -0.9983425140380859
      ],
      "type": "VEC3"
    },
    {
      "bufferView": 1,
      "byteOffset": 50248,
      "componentType": 5126,
      "count": 1457,
      "max": [
        0.9931489825248718,
        0.9897459745407104
      ],
      "min": [
        0.005324999801814556,
        0.006912000011652708
      ],
      "type": "VEC2"
    },
    {
      "bufferView": 0,
      "byteOffset": 97128,
      "componentType": 5125,
      "count": 6420,
      "type": "SCALAR"
    }
  ],
  "asset": {
    "extras": {
      "author": "rithiksundaresan (https://sketchfab.com/rithiksundaresan)",
      "license": "CC-BY-4.0 (http://creativecommons.org/licenses/by/4.0/)",
      "source": "https://sketchfab.com/3d-models/wolfrahh-eab43122b791442cb069d9e698d99c44",
      "title": "Wolfrahh"
    },
    "generator": "Sketchfab-10.99.0",
    "version": "2.0"
  },
  "bufferViews": [
    {
      "buffer": 0,
      "byteLength": 122808,
      "name": "floatBufferViews",
      "target": 34963
    },
    {
      "buffer": 0,
      "byteLength": 61904,
      "byteOffset": 122808,
      "byteStride": 8,
      "name": "floatBufferViews",
      "target": 34962
    },
    {
      "buffer": 0,
      "byteLength": 185712,
      "byteOffset": 184712,
      "byteStride": 12,
      "name": "floatBufferViews",
      "target": 34962
    }
  ],
  "buffers": [
    {
      "byteLength": 370424,
      "uri": "scene.bin"
    }
  ],
  "images": [
    {
      "uri": "textures/Bottum_baseColor.png"
    },
    {
      "uri": "textures/Face_baseColor.png"
    },
    {
      "uri": "textures/Hair_baseColor.png"
    },
    {
      "uri": "textures/Shoe_baseColor.png"
    },
    {
      "uri": "textures/material_baseColor.png"
    }
  ],
  "materials": [
    {
      "doubleSided": true,
      "name": "Bottum",
      "pbrMetallicRoughness": {
        "baseColorTexture": {
          "index": 0
        },
        "metallicFactor": 0.0,
        "roughnessFactor": 0.6
      }
    },
    {
      "doubleSided": true,
      "name": "Face",
      "pbrMetallicRoughness": {
        "baseColorTexture": {
          "index": 1
        },
        "metallicFactor": 0.0,
        "roughnessFactor": 0.6
      }
    },
    {
      "doubleSided": true,
      "name": "Hair",
      "pbrMetallicRoughness": {
        "baseColorTexture": {
          "index": 2
        },
        "metallicFactor": 0.0,
        "roughnessFactor": 0.6
      }
    },
    {
      "doubleSided": true,
      "name": "Shoe",
      "pbrMetallicRoughness": {
        "baseColorTexture": {
          "index": 3
        },
        "metallicFactor": 0.0,
        "roughnessFactor": 0.6
      }
    },
    {
      "doubleSided": true,
      "name": "material",
      "pbrMetallicRoughness": {
        "baseColorTexture": {
          "index": 4
        },
        "metallicFactor": 0.0,
        "roughnessFactor": 0.6
      }
    }
  ],
  "meshes": [
    {
      "name": "Object_0",
      "primitives": [
        {
          "attributes": {
            "NORMAL": 1,
            "POSITION": 0,
            "TEXCOORD_0": 2
          },
          "indices": 3,
          "material": 1,
          "mode": 4
        }
      ]
    },
    {
      "name": "Object_1",
      "primitives": [
        {
          "attributes": {
            "NORMAL": 5,
            "POSITION": 4,
            "TEXCOORD_0": 6
          },
          "indices": 7,
          "material": 3,
          "mode": 4
        }
      ]
    },
    {
      "name": "Object_2",
      "primitives": [
        {
          "attributes": {
            "NORMAL": 9,
            "POSITION": 8,
            "TEXCOORD_0": 10
          },
          "indices": 11,
          "material": 2,
          "mode": 4
        }
      ]
    },
    {
      "name": "Object_3",
      "primitives": [
        {
          "attributes": {
            "NORMAL": 13,
            "POSITION": 12,
            "TEXCOORD_0": 14
          },
          "indices": 15,
          "material": 4,
          "mode": 4
        }
      ]
    },
    {
      "name": "Object_4",
      "primitives": [
        {
          "attributes": {
            "NORMAL": 17,
            "POSITION": 16,
            "TEXCOORD_0": 18
          },
          "indices": 19,
          "material": 0,
          "mode": 4
        }
      ]
    }
  ],
  "nodes": [
    {
      "children": [
        1
      ],
      "matrix": [
        1.0,
        0.0,
        0.0,
        0.0,
        0.0,
        2.220446049250313e-16,
        -1.0,
        0.0,
        0.0,
        1.0,
        2.220446049250313e-16,
        0.0,
        0.0,
        0.0,
        0.0,
        1.0
      ],
      "name": "Sketchfab_model"
    },
    {
      "children": [
        2,
        3,
        4,
        5,
        6
      ],
      "name": "Wolfrahh.obj.cleaner.materialmerger.gles"
    },
    {
      "mesh": 0,
      "name": "Object_2"
    },
    {
      "mesh": 1,
      "name": "Object_3"
    },
    {
      "mesh": 2,
      "name": "Object_4"
    },
    {
      "mesh": 3,
      "name": "Object_5"
    },
    {
      "mesh": 4,
      "name": "Object_6"
    }
  ],
  "samplers": [
    {
      "magFilter": 9729,
      "minFilter": 9987,
      "wrapS": 10497,
      "wrapT": 10497
    }
  ],
  "scene": 0,
  "scenes": [
    {
      "name": "Sketchfab_Scene",
      "nodes": [
        0
      ]
    }
  ],
  "textures": [
    {
      "sampler": 0,
      "source": 0
    },
    {
      "sampler": 0,
      "source": 1
    },
    {
      "sampler": 0,
      "source": 2
    },
    {
      "sampler": 0,
      "source": 3
    },
    {
      "sampler": 0,
      "source": 4
    }
  ]
}
