<?xml version="1.0" encoding="UTF-8"?>
<svg xmlns="http://www.w3.org/2000/svg" xmlns:xlink="http://www.w3.org/1999/xlink" viewBox="0 0 64 64" width="50px" height="50px">
<defs>
<linearGradient id="linear0" gradientUnits="userSpaceOnUse" x1="83.309807" y1="43" x2="83.309807" y2="148.731628" gradientTransform="matrix(0.372093,0,0,0.372093,0,0)">
<stop offset="0" style="stop-color:rgb(54.11765%,70.588237%,100%);stop-opacity:1;"/>
<stop offset="1" style="stop-color:rgb(89.411765%,57.254905%,100%);stop-opacity:1;"/>
</linearGradient>
<linearGradient id="linear1" gradientUnits="userSpaceOnUse" x1="86" y1="13.4375" x2="86" y2="159.011307" gradientTransform="matrix(0.372093,0,0,0.372093,0,0)">
<stop offset="0" style="stop-color:rgb(10.196079%,42.745098%,100%);stop-opacity:1;"/>
<stop offset="1" style="stop-color:rgb(78.431374%,13.333334%,100%);stop-opacity:1;"/>
</linearGradient>
<linearGradient id="linear2" gradientUnits="userSpaceOnUse" x1="134.378067" y1="104.819977" x2="134.378067" y2="166.620224" gradientTransform="matrix(0.372093,0,0,0.372093,0,0)">
<stop offset="0" style="stop-color:rgb(42.745098%,78.039217%,100%);stop-opacity:1;"/>
<stop offset="1" style="stop-color:rgb(90.196079%,67.058825%,100%);stop-opacity:1;"/>
</linearGradient>
<linearGradient id="linear3" gradientUnits="userSpaceOnUse" x1="134.378326" y1="99.44558" x2="134.378326" y2="172" gradientTransform="matrix(0.372093,0,0,0.372093,0,0)">
<stop offset="0" style="stop-color:rgb(10.196079%,42.745098%,100%);stop-opacity:1;"/>
<stop offset="1" style="stop-color:rgb(78.431374%,13.333334%,100%);stop-opacity:1;"/>
</linearGradient>
</defs>
<g id="surface72212135">
<path style=" stroke:none;fill-rule:nonzero;fill:url(#linear0);" d="M 25.007812 56.007812 C 25.003906 55.640625 25.003906 54.046875 25 52.554688 L 24.996094 51.003906 C 18.265625 51.917969 16.636719 47.222656 16.621094 47.171875 C 15.6875 44.804688 14.410156 44.128906 14.355469 44.101562 L 14.230469 44.027344 C 13.765625 43.710938 12.539062 42.871094 12.886719 41.765625 C 13.203125 40.769531 14.425781 40.664062 14.980469 40.683594 C 18.054688 40.898438 19.609375 43.660156 19.671875 43.777344 C 21.242188 46.46875 23.636719 46.1875 25.183594 45.621094 C 25.324219 44.933594 25.550781 44.300781 25.839844 43.742188 C 20.886719 42.863281 15.269531 40.230469 15.269531 30.640625 C 15.269531 28.007812 16.089844 25.679688 17.710938 23.710938 C 17.347656 22.503906 16.9375 20.046875 18.15625 16.945312 L 18.332031 16.503906 L 18.78125 16.359375 C 19.199219 16.222656 21.472656 15.734375 26.140625 18.792969 C 28.070312 18.300781 30.109375 18.042969 32.214844 18.035156 C 34.332031 18.042969 36.375 18.300781 38.304688 18.792969 C 42.972656 15.734375 45.238281 16.226562 45.65625 16.359375 L 46.109375 16.503906 L 46.28125 16.945312 C 47.507812 20.042969 47.09375 22.503906 46.734375 23.710938 C 48.351562 25.675781 49.171875 28.003906 49.171875 30.640625 C 49.171875 32.390625 48.984375 33.910156 48.644531 35.230469 C 47.632812 35.585938 46.78125 36.328125 46.28125 37.34375 L 44.195312 41.683594 C 43.046875 42.429688 41.792969 42.9375 40.527344 43.289062 L 37.5625 43.691406 C 37.152344 43.75 36.761719 43.867188 36.398438 44.035156 C 36.285156 43.902344 36.183594 43.800781 36.101562 43.730469 L 34.371094 42.234375 L 36.644531 41.980469 C 41.851562 41.402344 47.171875 39.601562 47.171875 30.640625 C 47.171875 28.308594 46.394531 26.277344 44.859375 24.601562 L 44.429688 24.132812 L 44.671875 23.546875 C 44.839844 23.144531 45.566406 21.105469 44.628906 18.257812 C 43.871094 18.300781 42.0625 18.65625 39.046875 20.703125 L 38.660156 20.960938 L 38.214844 20.839844 C 36.351562 20.320312 34.277344 20.042969 32.214844 20.03125 C 30.164062 20.042969 28.089844 20.320312 26.230469 20.839844 L 25.785156 20.960938 L 25.402344 20.703125 C 22.382812 18.660156 20.570312 18.300781 19.808594 18.253906 C 18.875 21.105469 19.601562 23.144531 19.769531 23.546875 L 20.011719 24.132812 L 19.582031 24.601562 C 18.046875 26.285156 17.269531 28.316406 17.269531 30.640625 C 17.269531 39.597656 22.578125 41.410156 27.773438 42 L 30.023438 42.257812 L 28.316406 43.746094 C 27.945312 44.070312 27.285156 44.859375 27.0625 46.472656 L 26.988281 47.023438 L 26.480469 47.25 C 25.160156 47.839844 20.640625 49.410156 17.933594 44.765625 C 17.917969 44.738281 17.390625 43.820312 16.429688 43.207031 C 17.078125 43.847656 17.863281 44.878906 18.5 46.492188 C 18.566406 46.683594 19.855469 50.117188 25.777344 48.832031 L 26.984375 48.570312 L 26.996094 52.550781 C 27 54.035156 27.003906 55.625 27.007812 55.992188 Z M 39.4375 56.007812 L 37.4375 55.992188 C 37.4375 55.496094 37.441406 54.246094 37.445312 52.835938 L 39.441406 54.742188 C 39.4375 55.308594 39.4375 55.753906 39.4375 56.007812 Z M 39.4375 56.007812 "/>
<path style=" stroke:none;fill-rule:nonzero;fill:url(#linear1);" d="M 32 58 C 17.664062 58 6 46.335938 6 32 C 6 17.664062 17.664062 6 32 6 C 46.335938 6 58 17.664062 58 32 C 58 35.558594 57.28125 38.953125 55.980469 42.042969 L 54.78125 39.550781 C 55.574219 37.175781 56 34.636719 56 32 C 56 18.765625 45.234375 8 32 8 C 18.765625 8 8 18.765625 8 32 C 8 45.234375 18.765625 56 32 56 C 34.617188 56 37.140625 55.578125 39.5 54.800781 L 39.761719 55.050781 L 39.414062 56.921875 C 37.0625 57.625 34.574219 58 32 58 Z M 32 58 "/>
<path style=" stroke:none;fill-rule:nonzero;fill:url(#linear2);" d="M 56.839844 52.921875 C 56.339844 53.410156 56.121094 54.109375 56.230469 54.8125 L 57.429688 61.839844 C 57.429688 61.871094 57.441406 61.921875 57.378906 61.96875 C 57.308594 62.019531 57.261719 61.988281 57.242188 61.980469 L 51.382812 58.871094 C 50.949219 58.640625 50.472656 58.53125 50 58.53125 C 49.53125 58.53125 49.050781 58.640625 48.621094 58.871094 L 42.761719 61.980469 C 42.742188 61.988281 42.691406 62.019531 42.621094 61.96875 C 42.5625 61.921875 42.570312 61.859375 42.570312 61.839844 L 43.773438 54.800781 C 43.882812 54.109375 43.660156 53.410156 43.171875 52.921875 L 38.042969 47.882812 C 38.03125 47.863281 37.984375 47.820312 38.011719 47.742188 C 38.03125 47.660156 38.09375 47.652344 38.113281 47.652344 L 45.171875 46.621094 C 45.871094 46.511719 46.472656 46.082031 46.773438 45.441406 L 49.882812 39.09375 C 49.902344 39.054688 49.929688 39.003906 50 39.003906 C 50.070312 39.003906 50.101562 39.054688 50.121094 39.09375 L 53.230469 45.441406 C 53.53125 46.082031 54.128906 46.523438 54.832031 46.621094 L 61.890625 47.652344 C 61.910156 47.660156 61.96875 47.671875 61.988281 47.742188 C 62.019531 47.820312 61.96875 47.871094 61.960938 47.882812 Z M 56.839844 52.921875 "/>
<path style=" stroke:none;fill-rule:nonzero;fill:url(#linear3);" d="M 57.300781 64 C 56.960938 64 56.617188 63.917969 56.300781 63.75 L 56.273438 63.734375 L 50 60.152344 L 43.726562 63.734375 C 42.980469 64.132812 42.117188 64.074219 41.453125 63.59375 C 40.789062 63.113281 40.464844 62.3125 40.601562 61.503906 L 41.921875 54.351562 L 36.652344 49.316406 C 36.058594 48.734375 35.855469 47.898438 36.109375 47.121094 C 36.363281 46.347656 37.023438 45.792969 37.828125 45.675781 L 44.957031 44.710938 L 48.082031 38.21875 C 48.449219 37.46875 49.183594 37.003906 50 37.003906 C 50.816406 37.003906 51.550781 37.46875 51.917969 38.210938 L 55.042969 44.707031 L 62.164062 45.675781 C 62.980469 45.792969 63.640625 46.347656 63.894531 47.121094 C 64.148438 47.898438 63.941406 48.734375 63.359375 49.308594 L 58.082031 54.351562 L 59.398438 61.492188 C 59.539062 62.3125 59.210938 63.113281 58.546875 63.59375 C 58.175781 63.863281 57.742188 64 57.300781 64 Z M 57.246094 61.988281 C 57.273438 62 57.320312 62.015625 57.378906 61.972656 C 57.445312 61.925781 57.433594 61.863281 57.429688 61.839844 L 55.917969 53.652344 L 61.96875 47.871094 C 61.976562 47.867188 62.019531 47.824219 61.992188 47.746094 C 61.964844 47.667969 61.90625 47.660156 61.886719 47.65625 L 53.707031 46.546875 L 50.117188 39.085938 C 50.085938 39.023438 49.917969 39.015625 49.882812 39.089844 L 46.292969 46.546875 L 38.105469 47.65625 C 38.09375 47.65625 38.035156 47.667969 38.011719 47.746094 C 37.984375 47.824219 38.027344 47.867188 38.042969 47.882812 L 44.082031 53.652344 L 42.570312 61.855469 C 42.566406 61.863281 42.558594 61.925781 42.625 61.972656 C 42.691406 62.023438 42.742188 61.996094 42.765625 61.984375 L 50 57.851562 Z M 57.246094 61.988281 "/>
</g>
</svg>
